{
  "source": "C:\\Users\\Peter\\Desktop\\stuff\\MIUN\\quantitative_research\\video_compression\\videos\\HEVC_CLASS_B\\BasketballDrive_1920x1080_50.y4m",
  "output": "C:\\Users\\Peter\\Desktop\\stuff\\MIUN\\quantitative_research\\video_compression\\compressed_videos\\HEVC_CLASS_B\\av1\\12\\BasketballDrive_1920x1080_50_av1.mkv",
  "codec": "av1",
  "ok": "Input #0, yuv4mpegpipe, from 'C:\\Users\\Peter\\Desktop\\stuff\\MIUN\\quantitative_research\\video_compression\\videos\\HEVC_CLASS_B\\BasketballDrive_1920x1080_50.y4m':\n  Duration: 00:00:10.00, start: 0.000000, bitrate: 1244162 kb/s\n  Stream #0:0: Video: rawvideo (I420 / 0x30323449), yuv420p(progressive), 1920x1080, 50 fps, 50 tbr, 50 tbn\n[out#0/matroska @ 0000018a268a93c0] Codec AVOption b:a (set bitrate (in bits/s)) has not been used for any stream. The most likely reason is either wrong type (e.g. a video option with no video streams) or that it is a private option of some decoder which was not actually used for any stream.\nStream mapping:\n  Stream #0:0 -> #0:0 (rawvideo (native) -> av1 (libsvtav1))\nPress [q] to stop, [?] for help\nSvt[info]: -------------------------------------------\nSvt[info]: SVT [version]:\tSVT-AV1 Encoder Lib v3.1.0-19-g6ecfe8ec\nSvt[info]: SVT [build]  :\tGCC 15.2.0\t 64 bit\nSvt[info]: LIB Build date: Aug 17 2025 11:37:13\nSvt[info]: -------------------------------------------\n[libsvtav1 @ 0000018a268ac500] Specified chroma sample location center is unsupported on the AV1 bit stream level. Usage of a container that allows passing this information - such as Matroska - is recommended.\nSvt[info]: Level of Parallelism: 5\nSvt[info]: Number of PPCS 93\nSvt[info]: [asm level on system : up to avx2]\nSvt[info]: [asm level selected : up to avx2]\nSvt[info]: -------------------------------------------\nSvt[info]: SVT [config]: main profile\ttier (auto)\tlevel (auto)\nSvt[info]: SVT [config]: width / height / fps numerator / fps denominator \t\t: 1920 / 1080 / 50 / 1\nSvt[info]: SVT [config]: bit-depth / color format \t\t\t\t\t: 8 / YUV420\nSvt[info]: SVT [config]: preset / tune / pred struct \t\t\t\t\t: 4 / PSNR / random access\nSvt[info]: SVT [config]: gop size / mini-gop size / key-frame type \t\t\t: 321 / 16 / key frame\nSvt[info]: SVT [config]: BRC mode / target bitrate (kbps)\t\t\t\t: VBR / 12000 \nSvt[info]: SVT [config]: AQ mode / Variance Boost \t\t\t\t\t: 2 / 0\nSvt[info]: SVT [config]: sharpness / luminance-based QP bias \t\t\t\t: 0 / 0\nSvt[info]: SVT [config]: QP scale compress strength \t\t\t\t\t: 0\nSvt[info]: -------------------------------------------\nOutput #0, matroska, to 'C:\\Users\\Peter\\Desktop\\stuff\\MIUN\\quantitative_research\\video_compression\\compressed_videos\\HEVC_CLASS_B\\av1\\12\\BasketballDrive_1920x1080_50_av1.mkv':\n  Metadata:\n    encoder         : Lavf62.3.100\n  Stream #0:0: Video: av1 (AV01 / 0x31305641), yuv420p(tv, progressive), 1920x1080, q=2-31, 12000 kb/s, 50 fps, 1k tbn\n    Metadata:\n      encoder         : Lavc62.11.100 libsvtav1\n    Side data:\n      cpb: bitrate max/min/avg: 0/0/12000000 buffer size: 12000000 vbv_delay: N/A\nframe=    0 fps=0.0 q=0.0 size=       0KiB time=N/A bitrate=N/A speed=N/A elapsed=0:00:04.09    \nframe=    0 fps=0.0 q=0.0 size=       0KiB time=N/A bitrate=N/A speed=N/A elapsed=0:00:05.28    \nframe=    0 fps=0.0 q=0.0 size=       0KiB time=N/A bitrate=N/A speed=N/A elapsed=0:00:06.22    \nframe=    0 fps=0.0 q=0.0 size=       0KiB time=N/A bitrate=N/A speed=N/A elapsed=0:00:06.85    \nframe=    0 fps=0.0 q=0.0 size=       0KiB time=N/A bitrate=N/A speed=N/A elapsed=0:00:07.51    \nframe=    0 fps=0.0 q=0.0 size=       0KiB time=N/A bitrate=N/A speed=N/A elapsed=0:00:08.19    \nframe=    0 fps=0.0 q=0.0 size=       0KiB time=N/A bitrate=N/A speed=N/A elapsed=0:00:08.73    \nframe=    0 fps=0.0 q=0.0 size=       0KiB time=N/A bitrate=N/A speed=N/A elapsed=0:00:09.29    \nframe=    0 fps=0.0 q=0.0 size=       0KiB time=N/A bitrate=N/A speed=N/A elapsed=0:00:10.00    \nframe=    0 fps=0.0 q=0.0 size=       0KiB time=N/A bitrate=N/A speed=N/A elapsed=0:00:10.54    \nframe=    0 fps=0.0 q=0.0 size=       0KiB time=N/A bitrate=N/A speed=N/A elapsed=0:00:11.05    \nframe=    0 fps=0.0 q=0.0 size=       0KiB time=N/A bitrate=N/A speed=N/A elapsed=0:00:11.59    \nframe=    0 fps=0.0 q=0.0 size=       0KiB time=N/A bitrate=N/A speed=N/A elapsed=0:00:12.15    \nframe=    0 fps=0.0 q=0.0 size=       0KiB time=N/A bitrate=N/A speed=N/A elapsed=0:00:12.71    \nframe=    0 fps=0.0 q=0.0 size=       0KiB time=N/A bitrate=N/A speed=N/A elapsed=0:00:13.25    \nframe=    0 fps=0.0 q=0.0 size=       0KiB time=N/A bitrate=N/A speed=N/A elapsed=0:00:13.80    \nframe=    0 fps=0.0 q=0.0 size=       0KiB time=N/A bitrate=N/A speed=N/A elapsed=0:00:14.34    \nframe=    0 fps=0.0 q=0.0 size=       0KiB time=N/A bitrate=N/A speed=N/A elapsed=0:00:14.87    \nframe=    0 fps=0.0 q=0.0 size=       0KiB time=N/A bitrate=N/A speed=N/A elapsed=0:00:15.40    \nframe=    0 fps=0.0 q=0.0 size=       0KiB time=N/A bitrate=N/A speed=N/A elapsed=0:00:15.93    \nframe=    0 fps=0.0 q=0.0 size=       0KiB time=N/A bitrate=N/A speed=N/A elapsed=0:00:16.46    \nframe=    0 fps=0.0 q=0.0 size=       0KiB time=N/A bitrate=N/A speed=N/A elapsed=0:00:17.00    \nframe=    0 fps=0.0 q=0.0 size=       0KiB time=N/A bitrate=N/A speed=N/A elapsed=0:00:17.53    \nframe=    0 fps=0.0 q=0.0 size=       0KiB time=N/A bitrate=N/A speed=N/A elapsed=0:00:18.08    \nframe=    0 fps=0.0 q=0.0 size=       0KiB time=N/A bitrate=N/A speed=N/A elapsed=0:00:18.63    \nframe=    0 fps=0.0 q=0.0 size=       0KiB time=N/A bitrate=N/A speed=N/A elapsed=0:00:19.15    \nframe=    0 fps=0.0 q=0.0 size=       0KiB time=N/A bitrate=N/A speed=N/A elapsed=0:00:19.67    \nframe=    0 fps=0.0 q=0.0 size=       0KiB time=N/A bitrate=N/A speed=N/A elapsed=0:00:20.19    \nframe=    0 fps=0.0 q=0.0 size=       0KiB time=N/A bitrate=N/A speed=N/A elapsed=0:00:20.73    \nframe=    0 fps=0.0 q=0.0 size=       0KiB time=N/A bitrate=N/A speed=N/A elapsed=0:00:21.24    \nframe=    0 fps=0.0 q=0.0 size=       0KiB time=N/A bitrate=N/A speed=N/A elapsed=0:00:21.75    \nframe=    0 fps=0.0 q=0.0 size=       0KiB time=N/A bitrate=N/A speed=N/A elapsed=0:00:22.27    \nframe=    0 fps=0.0 q=0.0 size=       0KiB time=N/A bitrate=N/A speed=N/A elapsed=0:00:22.80    \nframe=    0 fps=0.0 q=0.0 size=       0KiB time=N/A bitrate=N/A speed=N/A elapsed=0:00:23.34    \nframe=    0 fps=0.0 q=0.0 size=       0KiB time=N/A bitrate=N/A speed=N/A elapsed=0:00:23.85    \nframe=    0 fps=0.0 q=0.0 size=       0KiB time=N/A bitrate=N/A speed=N/A elapsed=0:00:24.36    \nframe=    0 fps=0.0 q=0.0 size=       0KiB time=N/A bitrate=N/A speed=N/A elapsed=0:00:24.89    \nframe=    1 fps=0.0 q=9.0 size=       1KiB time=00:00:00.00 bitrate=N/A speed=   0x elapsed=0:00:25.41    \nframe=    1 fps=0.0 q=9.0 size=       1KiB time=00:00:00.00 bitrate=N/A speed=   0x elapsed=0:00:25.92    \nframe=    1 fps=0.0 q=9.0 size=       1KiB time=00:00:00.00 bitrate=N/A speed=   0x elapsed=0:00:26.44    \nframe=    1 fps=0.0 q=9.0 size=       1KiB time=00:00:00.00 bitrate=N/A speed=   0x elapsed=0:00:26.96    \nframe=    1 fps=0.0 q=9.0 size=       1KiB time=00:00:00.00 bitrate=N/A speed=   0x elapsed=0:00:27.48    \nframe=    1 fps=0.0 q=9.0 size=       1KiB time=00:00:00.00 bitrate=N/A speed=   0x elapsed=0:00:27.99    \nframe=    1 fps=0.0 q=9.0 size=       1KiB time=00:00:00.00 bitrate=N/A speed=   0x elapsed=0:00:28.51    \nframe=    1 fps=0.0 q=9.0 size=       1KiB time=00:00:00.00 bitrate=N/A speed=   0x elapsed=0:00:29.02    \nframe=    1 fps=0.0 q=9.0 size=       1KiB time=00:00:00.00 bitrate=N/A speed=   0x elapsed=0:00:29.53    \nframe=    1 fps=0.0 q=9.0 size=       1KiB time=00:00:00.00 bitrate=N/A speed=   0x elapsed=0:00:30.06    \nframe=    1 fps=0.0 q=9.0 size=       1KiB time=00:00:00.00 bitrate=N/A speed=   0x elapsed=0:00:30.58    \nframe=    1 fps=0.0 q=9.0 size=       1KiB time=00:00:00.00 bitrate=N/A speed=   0x elapsed=0:00:31.12    \nframe=    1 fps=0.0 q=9.0 size=       1KiB time=00:00:00.00 bitrate=N/A speed=   0x elapsed=0:00:31.65    \nframe=    1 fps=0.0 q=9.0 size=       1KiB time=00:00:00.00 bitrate=N/A speed=   0x elapsed=0:00:32.18    \nframe=    1 fps=0.0 q=9.0 size=       1KiB time=00:00:00.00 bitrate=N/A speed=   0x elapsed=0:00:32.72    \nframe=    2 fps=0.1 q=29.0 size=       1KiB time=00:00:00.02 bitrate= 224.8kbits/s speed=0.000602x elapsed=0:00:33.24    \nframe=    2 fps=0.1 q=29.0 size=       1KiB time=00:00:00.02 bitrate= 224.8kbits/s speed=0.000592x elapsed=0:00:33.76    \nframe=    3 fps=0.1 q=25.0 size=       1KiB time=00:00:00.04 bitrate= 112.4kbits/s speed=0.00117x elapsed=0:00:34.27    \nframe=    3 fps=0.1 q=25.0 size=       1KiB time=00:00:00.04 bitrate= 112.4kbits/s speed=0.00115x elapsed=0:00:34.79    \nframe=    3 fps=0.1 q=25.0 size=       1KiB time=00:00:00.04 bitrate= 112.4kbits/s speed=0.00113x elapsed=0:00:35.31    \nframe=    4 fps=0.1 q=29.0 size=       1KiB time=00:00:00.06 bitrate=  74.9kbits/s speed=0.00168x elapsed=0:00:35.82    \nframe=    4 fps=0.1 q=29.0 size=       1KiB time=00:00:00.06 bitrate=  74.9kbits/s speed=0.00165x elapsed=0:00:36.33    \nframe=    5 fps=0.1 q=23.0 size=       1KiB time=00:00:00.08 bitrate=  56.2kbits/s speed=0.00217x elapsed=0:00:36.85    \nframe=    5 fps=0.1 q=23.0 size=       1KiB time=00:00:00.08 bitrate=  56.2kbits/s speed=0.00214x elapsed=0:00:37.36    \nframe=    6 fps=0.2 q=24.0 size=       1KiB time=00:00:00.10 bitrate=  45.0kbits/s speed=0.00264x elapsed=0:00:37.88    \nframe=    6 fps=0.2 q=24.0 size=       1KiB time=00:00:00.10 bitrate=  45.0kbits/s speed=0.0026x elapsed=0:00:38.40    \nframe=    6 fps=0.2 q=24.0 size=       1KiB time=00:00:00.10 bitrate=  45.0kbits/s speed=0.00257x elapsed=0:00:38.91    \nframe=    7 fps=0.2 q=23.0 size=       1KiB time=00:00:00.12 bitrate=  37.5kbits/s speed=0.00304x elapsed=0:00:39.43    \nframe=    7 fps=0.2 q=23.0 size=       1KiB time=00:00:00.12 bitrate=  37.5kbits/s speed=0.003x elapsed=0:00:39.94    \nframe=    9 fps=0.2 q=19.0 size=       1KiB time=00:00:00.16 bitrate=  28.1kbits/s speed=0.00395x elapsed=0:00:40.46    \nframe=    9 fps=0.2 q=19.0 size=       1KiB time=00:00:00.16 bitrate=  28.1kbits/s speed=0.0039x elapsed=0:00:40.98    \nframe=   10 fps=0.2 q=24.0 size=       1KiB time=00:00:00.18 bitrate=  25.0kbits/s speed=0.00434x elapsed=0:00:41.51    \nframe=   10 fps=0.2 q=24.0 size=       1KiB time=00:00:00.18 bitrate=  25.0kbits/s speed=0.00428x elapsed=0:00:42.04    \nframe=   11 fps=0.3 q=24.0 size=       1KiB time=00:00:00.20 bitrate=  22.5kbits/s speed=0.0047x elapsed=0:00:42.57    \nframe=   11 fps=0.3 q=24.0 size=       1KiB time=00:00:00.20 bitrate=  22.5kbits/s speed=0.00464x elapsed=0:00:43.08    \nframe=   12 fps=0.3 q=23.0 size=       1KiB time=00:00:00.22 bitrate=  20.4kbits/s speed=0.00504x elapsed=0:00:43.61    \nframe=   12 fps=0.3 q=23.0 size=       1KiB time=00:00:00.22 bitrate=  20.4kbits/s speed=0.00498x elapsed=0:00:44.14    \nframe=   14 fps=0.3 q=23.0 size=       1KiB time=00:00:00.26 bitrate=  17.3kbits/s speed=0.00582x elapsed=0:00:44.66    \nframe=   16 fps=0.4 q=23.0 size=       1KiB time=00:00:00.30 bitrate=  15.0kbits/s speed=0.00664x elapsed=0:00:45.19    \nframe=   16 fps=0.3 q=23.0 size=       1KiB time=00:00:00.30 bitrate=  15.0kbits/s speed=0.00656x elapsed=0:00:45.73    \nframe=   17 fps=0.4 q=10.0 size=       1KiB time=00:00:00.32 bitrate=  14.1kbits/s speed=0.00692x elapsed=0:00:46.26    \nframe=   17 fps=0.4 q=10.0 size=       1KiB time=00:00:00.32 bitrate=  14.1kbits/s speed=0.00684x elapsed=0:00:46.78    \nframe=   18 fps=0.4 q=22.0 size=       1KiB time=00:00:00.34 bitrate=  13.2kbits/s speed=0.00719x elapsed=0:00:47.31    \nframe=   19 fps=0.4 q=25.0 size=       1KiB time=00:00:00.36 bitrate=  12.5kbits/s speed=0.00753x elapsed=0:00:47.83    \nframe=   19 fps=0.4 q=25.0 size=       1KiB time=00:00:00.36 bitrate=  12.5kbits/s speed=0.00744x elapsed=0:00:48.36    \nframe=   20 fps=0.4 q=22.0 size=       1KiB time=00:00:00.38 bitrate=  11.8kbits/s speed=0.00777x elapsed=0:00:48.89    \nframe=   20 fps=0.4 q=22.0 size=       1KiB time=00:00:00.38 bitrate=  11.8kbits/s speed=0.00769x elapsed=0:00:49.41    \nframe=   21 fps=0.4 q=23.0 size=       1KiB time=00:00:00.40 bitrate=  11.2kbits/s speed=0.00801x elapsed=0:00:49.93    \nframe=   22 fps=0.4 q=21.0 size=       1KiB time=00:00:00.42 bitrate=  10.7kbits/s speed=0.00832x elapsed=0:00:50.46    \nframe=   22 fps=0.4 q=21.0 size=       1KiB time=00:00:00.42 bitrate=  10.7kbits/s speed=0.00824x elapsed=0:00:50.99    \nframe=   22 fps=0.4 q=21.0 size=       1KiB time=00:00:00.42 bitrate=  10.7kbits/s speed=0.00815x elapsed=0:00:51.52    \nframe=   23 fps=0.4 q=25.0 size=       1KiB time=00:00:00.44 bitrate=  10.2kbits/s speed=0.00845x elapsed=0:00:52.05    \nframe=   23 fps=0.4 q=25.0 size=       1KiB time=00:00:00.44 bitrate=  10.2kbits/s speed=0.00837x elapsed=0:00:52.56    \nframe=   23 fps=0.4 q=25.0 size=       1KiB time=00:00:00.44 bitrate=  10.2kbits/s speed=0.00829x elapsed=0:00:53.08    \nframe=   24 fps=0.4 q=21.0 size=       1KiB time=00:00:00.46 bitrate=   9.8kbits/s speed=0.00858x elapsed=0:00:53.60    \nframe=   26 fps=0.5 q=20.0 size=       1KiB time=00:00:00.50 bitrate=   9.0kbits/s speed=0.00924x elapsed=0:00:54.12    \nframe=   26 fps=0.5 q=20.0 size=       1KiB time=00:00:00.50 bitrate=   9.0kbits/s speed=0.00915x elapsed=0:00:54.64    \nframe=   27 fps=0.5 q=24.0 size=       1KiB time=00:00:00.52 bitrate=   8.6kbits/s speed=0.00943x elapsed=0:00:55.17    \nframe=   27 fps=0.5 q=24.0 size=       1KiB time=00:00:00.52 bitrate=   8.6kbits/s speed=0.00934x elapsed=0:00:55.70    \nframe=   28 fps=0.5 q=17.0 size=       1KiB time=00:00:00.54 bitrate=   8.3kbits/s speed=0.0096x elapsed=0:00:56.22    \nframe=   28 fps=0.5 q=17.0 size=       1KiB time=00:00:00.54 bitrate=   8.3kbits/s speed=0.00952x elapsed=0:00:56.74    \nframe=   29 fps=0.5 q=22.0 size=       1KiB time=00:00:00.56 bitrate=   8.0kbits/s speed=0.00978x elapsed=0:00:57.27    \nframe=   29 fps=0.5 q=22.0 size=       1KiB time=00:00:00.56 bitrate=   8.0kbits/s speed=0.00969x elapsed=0:00:57.79    \nframe=   32 fps=0.5 q=22.0 size=       1KiB time=00:00:00.62 bitrate=   7.3kbits/s speed=0.0106x elapsed=0:00:58.31    \nframe=   32 fps=0.5 q=22.0 size=       1KiB time=00:00:00.62 bitrate=   7.3kbits/s speed=0.0105x elapsed=0:00:58.83    \nframe=   33 fps=0.6 q=12.0 size=       1KiB time=00:00:00.64 bitrate=   7.0kbits/s speed=0.0108x elapsed=0:00:59.35    \nframe=   33 fps=0.6 q=12.0 size=       1KiB time=00:00:00.64 bitrate=   7.0kbits/s speed=0.0107x elapsed=0:00:59.86    \nframe=   34 fps=0.6 q=21.0 size=       1KiB time=00:00:00.66 bitrate=   6.8kbits/s speed=0.0109x elapsed=0:01:00.38    \nframe=   35 fps=0.6 q=24.0 size=       1KiB time=00:00:00.68 bitrate=   6.6kbits/s speed=0.0112x elapsed=0:01:00.90    \nframe=   35 fps=0.6 q=24.0 size=       1KiB time=00:00:00.68 bitrate=   6.6kbits/s speed=0.0111x elapsed=0:01:01.41    \nframe=   35 fps=0.6 q=24.0 size=       1KiB time=00:00:00.68 bitrate=   6.6kbits/s speed=0.011x elapsed=0:01:01.94    \nframe=   36 fps=0.6 q=21.0 size=       1KiB time=00:00:00.70 bitrate=   6.4kbits/s speed=0.0112x elapsed=0:01:02.47    \nframe=   36 fps=0.6 q=21.0 size=       1KiB time=00:00:00.70 bitrate=   6.4kbits/s speed=0.0111x elapsed=0:01:02.99    \nframe=   37 fps=0.6 q=23.0 size=       1KiB time=00:00:00.72 bitrate=   6.2kbits/s speed=0.0113x elapsed=0:01:03.52    \nframe=   38 fps=0.6 q=22.0 size=       1KiB time=00:00:00.74 bitrate=   6.1kbits/s speed=0.0116x elapsed=0:01:04.05    \nframe=   38 fps=0.6 q=22.0 size=       1KiB time=00:00:00.74 bitrate=   6.1kbits/s speed=0.0115x elapsed=0:01:04.57    \nframe=   39 fps=0.6 q=23.0 size=       1KiB time=00:00:00.76 bitrate=   5.9kbits/s speed=0.0117x elapsed=0:01:05.09    \nframe=   39 fps=0.6 q=23.0 size=       1KiB time=00:00:00.76 bitrate=   5.9kbits/s speed=0.0116x elapsed=0:01:05.61    \nframe=   39 fps=0.6 q=23.0 size=       1KiB time=00:00:00.76 bitrate=   5.9kbits/s speed=0.0115x elapsed=0:01:06.13    \nframe=   40 fps=0.6 q=22.0 size=       1KiB time=00:00:00.78 bitrate=   5.8kbits/s speed=0.0117x elapsed=0:01:06.66    \nframe=   41 fps=0.6 q=14.0 size=       1KiB time=00:00:00.80 bitrate=   5.6kbits/s speed=0.0119x elapsed=0:01:07.20    \nframe=   42 fps=0.6 q=23.0 size=       1KiB time=00:00:00.82 bitrate=   5.5kbits/s speed=0.0121x elapsed=0:01:07.73    \nframe=   42 fps=0.6 q=23.0 size=       1KiB time=00:00:00.82 bitrate=   5.5kbits/s speed=0.012x elapsed=0:01:08.26    \nframe=   43 fps=0.6 q=25.0 size=       1KiB time=00:00:00.84 bitrate=   5.4kbits/s speed=0.0122x elapsed=0:01:08.81    \nframe=   43 fps=0.6 q=25.0 size=       1KiB time=00:00:00.84 bitrate=   5.4kbits/s speed=0.0121x elapsed=0:01:09.34    \nframe=   44 fps=0.6 q=21.0 size=       1KiB time=00:00:00.86 bitrate=   5.2kbits/s speed=0.0123x elapsed=0:01:09.87    \nframe=   45 fps=0.6 q=21.0 size=       1KiB time=00:00:00.88 bitrate=   5.1kbits/s speed=0.0125x elapsed=0:01:10.40    \nframe=   47 fps=0.7 q=24.0 size=       1KiB time=00:00:00.92 bitrate=   4.9kbits/s speed=0.013x elapsed=0:01:10.92    \nframe=   48 fps=0.7 q=24.0 size=       1KiB time=00:00:00.94 bitrate=   4.8kbits/s speed=0.0132x elapsed=0:01:11.44    \nframe=   48 fps=0.7 q=24.0 size=       1KiB time=00:00:00.94 bitrate=   4.8kbits/s speed=0.0131x elapsed=0:01:11.98    \nframe=   49 fps=0.7 q=10.0 size=       1KiB time=00:00:00.96 bitrate=   4.7kbits/s speed=0.0132x elapsed=0:01:12.52    \nframe=   50 fps=0.7 q=25.0 size=       1KiB time=00:00:00.98 bitrate=   4.6kbits/s speed=0.0134x elapsed=0:01:13.06    \nframe=   51 fps=0.7 q=25.0 size=       1KiB time=00:00:01.00 bitrate=   4.5kbits/s speed=0.0136x elapsed=0:01:13.59    \nframe=   51 fps=0.7 q=25.0 size=       1KiB time=00:00:01.00 bitrate=   4.5kbits/s speed=0.0135x elapsed=0:01:14.12    \nframe=   52 fps=0.7 q=25.0 size=       1KiB time=00:00:01.02 bitrate=   4.4kbits/s speed=0.0137x elapsed=0:01:14.63    \nframe=   53 fps=0.7 q=23.0 size=       1KiB time=00:00:01.04 bitrate=   4.3kbits/s speed=0.0138x elapsed=0:01:15.21    \nframe=   54 fps=0.7 q=25.0 size=       1KiB time=00:00:01.06 bitrate=   4.2kbits/s speed=0.014x elapsed=0:01:15.75    \nframe=   54 fps=0.7 q=25.0 size=       1KiB time=00:00:01.06 bitrate=   4.2kbits/s speed=0.0139x elapsed=0:01:16.39    \nframe=   55 fps=0.7 q=25.0 size=       1KiB time=00:00:01.08 bitrate=   4.2kbits/s speed=0.014x elapsed=0:01:17.01    \nframe=   55 fps=0.7 q=25.0 size=       1KiB time=00:00:01.08 bitrate=   4.2kbits/s speed=0.0139x elapsed=0:01:17.56    \nframe=   57 fps=0.7 q=13.0 size=       1KiB time=00:00:01.12 bitrate=   4.0kbits/s speed=0.0143x elapsed=0:01:18.21    \nframe=   58 fps=0.7 q=26.0 size=       1KiB time=00:00:01.14 bitrate=   3.9kbits/s speed=0.0145x elapsed=0:01:18.74    \nframe=   58 fps=0.7 q=26.0 size=       1KiB time=00:00:01.14 bitrate=   3.9kbits/s speed=0.0144x elapsed=0:01:19.28    \nframe=   59 fps=0.7 q=25.0 size=       1KiB time=00:00:01.16 bitrate=   3.9kbits/s speed=0.0145x elapsed=0:01:19.81    \nframe=   59 fps=0.7 q=25.0 size=       1KiB time=00:00:01.16 bitrate=   3.9kbits/s speed=0.0144x elapsed=0:01:20.35    \nframe=   61 fps=0.8 q=22.0 size=       1KiB time=00:00:01.20 bitrate=   3.7kbits/s speed=0.0148x elapsed=0:01:20.89    \nframe=   62 fps=0.8 q=26.0 size=       1KiB time=00:00:01.22 bitrate=   3.7kbits/s speed=0.015x elapsed=0:01:21.46    \nframe=   64 fps=0.8 q=26.0 size=       1KiB time=00:00:01.26 bitrate=   3.6kbits/s speed=0.0154x elapsed=0:01:21.99    \nframe=   66 fps=0.8 q=27.0 size=       1KiB time=00:00:01.30 bitrate=   3.5kbits/s speed=0.0158x elapsed=0:01:22.51    \nframe=   67 fps=0.8 q=25.0 size=       1KiB time=00:00:01.32 bitrate=   3.4kbits/s speed=0.0159x elapsed=0:01:23.10    \nframe=   68 fps=0.8 q=27.0 size=       1KiB time=00:00:01.34 bitrate=   3.4kbits/s speed=0.016x elapsed=0:01:23.83    \nframe=   69 fps=0.8 q=21.0 size=       1KiB time=00:00:01.36 bitrate=   3.3kbits/s speed=0.0161x elapsed=0:01:24.35    \nframe=   70 fps=0.8 q=27.0 size=       1KiB time=00:00:01.38 bitrate=   3.3kbits/s speed=0.0163x elapsed=0:01:24.86    \nframe=   71 fps=0.8 q=25.0 size=       1KiB time=00:00:01.40 bitrate=   3.2kbits/s speed=0.0164x elapsed=0:01:25.38    \nframe=   72 fps=0.8 q=27.0 size=       1KiB time=00:00:01.42 bitrate=   3.2kbits/s speed=0.0165x elapsed=0:01:25.90    \nframe=   73 fps=0.8 q=19.0 size=       1KiB time=00:00:01.44 bitrate=   3.1kbits/s speed=0.0167x elapsed=0:01:26.41    \nframe=   74 fps=0.9 q=28.0 size=       1KiB time=00:00:01.46 bitrate=   3.1kbits/s speed=0.0168x elapsed=0:01:26.92    \nframe=   75 fps=0.9 q=25.0 size=       1KiB time=00:00:01.48 bitrate=   3.0kbits/s speed=0.0169x elapsed=0:01:27.45    \nframe=   76 fps=0.9 q=27.0 size=       1KiB time=00:00:01.50 bitrate=   3.0kbits/s speed=0.0171x elapsed=0:01:27.96    \nframe=   76 fps=0.9 q=27.0 size=       1KiB time=00:00:01.50 bitrate=   3.0kbits/s speed=0.017x elapsed=0:01:28.48    \nframe=   79 fps=0.9 q=25.0 size=       1KiB time=00:00:01.56 bitrate=   2.9kbits/s speed=0.0175x elapsed=0:01:28.99    \nframe=   80 fps=0.9 q=28.0 size=       1KiB time=00:00:01.58 bitrate=   2.8kbits/s speed=0.0176x elapsed=0:01:29.52    \nframe=   81 fps=0.9 q=10.0 size=       1KiB time=00:00:01.60 bitrate=   2.8kbits/s speed=0.0178x elapsed=0:01:30.02    \nframe=   81 fps=0.9 q=10.0 size=       1KiB time=00:00:01.60 bitrate=   2.8kbits/s speed=0.0177x elapsed=0:01:30.54    \nframe=   82 fps=0.9 q=28.0 size=       1KiB time=00:00:01.62 bitrate=   2.8kbits/s speed=0.0178x elapsed=0:01:31.05    \nframe=   83 fps=0.9 q=27.0 size=       1KiB time=00:00:01.64 bitrate=   2.7kbits/s speed=0.0179x elapsed=0:01:31.56    \nframe=   84 fps=0.9 q=28.0 size=       1KiB time=00:00:01.66 bitrate=   2.7kbits/s speed=0.018x elapsed=0:01:32.08    \nframe=   85 fps=0.9 q=25.0 size=       1KiB time=00:00:01.68 bitrate=   2.7kbits/s speed=0.0181x elapsed=0:01:32.61    \nframe=   86 fps=0.9 q=28.0 size=       1KiB time=00:00:01.70 bitrate=   2.6kbits/s speed=0.0183x elapsed=0:01:33.11    \nframe=   87 fps=0.9 q=27.0 size=       1KiB time=00:00:01.72 bitrate=   2.6kbits/s speed=0.0184x elapsed=0:01:33.64    \nframe=   87 fps=0.9 q=27.0 size=       1KiB time=00:00:01.72 bitrate=   2.6kbits/s speed=0.0183x elapsed=0:01:34.15    \nframe=   89 fps=0.9 q=20.0 size=       1KiB time=00:00:01.76 bitrate=   2.6kbits/s speed=0.0186x elapsed=0:01:34.67    \nframe=   90 fps=0.9 q=28.0 size=       1KiB time=00:00:01.78 bitrate=   2.5kbits/s speed=0.0187x elapsed=0:01:35.18    \nframe=   91 fps=1.0 q=25.0 size=       1KiB time=00:00:01.80 bitrate=   2.5kbits/s speed=0.0188x elapsed=0:01:35.69    \nframe=   91 fps=0.9 q=25.0 size=       1KiB time=00:00:01.80 bitrate=   2.5kbits/s speed=0.0187x elapsed=0:01:36.21    \nframe=   93 fps=1.0 q=21.0 size=       1KiB time=00:00:01.84 bitrate=   2.4kbits/s speed=0.019x elapsed=0:01:36.73    \nframe=   95 fps=1.0 q=26.0 size=       1KiB time=00:00:01.88 bitrate=   2.4kbits/s speed=0.0193x elapsed=0:01:37.23    \nframe=   96 fps=1.0 q=23.0 size=       1KiB time=00:00:01.90 bitrate=   2.4kbits/s speed=0.0194x elapsed=0:01:37.76    \nframe=   97 fps=1.0 q=10.0 size=       1KiB time=00:00:01.92 bitrate=   2.3kbits/s speed=0.0195x elapsed=0:01:38.27    \nframe=   98 fps=1.0 q=29.0 size=       1KiB time=00:00:01.94 bitrate=   2.3kbits/s speed=0.0196x elapsed=0:01:38.79    \nframe=   99 fps=1.0 q=28.0 size=       1KiB time=00:00:01.96 bitrate=   2.3kbits/s speed=0.0197x elapsed=0:01:39.31    \nframe=   99 fps=1.0 q=28.0 size=       1KiB time=00:00:01.96 bitrate=   2.3kbits/s speed=0.0196x elapsed=0:01:39.82    \nframe=  100 fps=1.0 q=29.0 size=       1KiB time=00:00:01.98 bitrate=   2.3kbits/s speed=0.0197x elapsed=0:01:40.34    \nframe=  101 fps=1.0 q=26.0 size=       1KiB time=00:00:02.00 bitrate=   2.2kbits/s speed=0.0198x elapsed=0:01:40.85    \nframe=  101 fps=1.0 q=26.0 size=       1KiB time=00:00:02.00 bitrate=   2.2kbits/s speed=0.0197x elapsed=0:01:41.37    \nframe=  102 fps=1.0 q=29.0 size=       1KiB time=00:00:02.02 bitrate=   2.2kbits/s speed=0.0198x elapsed=0:01:41.89    \nframe=  102 fps=1.0 q=29.0 size=       1KiB time=00:00:02.02 bitrate=   2.2kbits/s speed=0.0197x elapsed=0:01:42.40    \nframe=  103 fps=1.0 q=28.0 size=       1KiB time=00:00:02.04 bitrate=   2.2kbits/s speed=0.0198x elapsed=0:01:42.91    \nframe=  103 fps=1.0 q=28.0 size=       1KiB time=00:00:02.04 bitrate=   2.2kbits/s speed=0.0197x elapsed=0:01:43.42    \nframe=  105 fps=1.0 q=21.0 size=       1KiB time=00:00:02.08 bitrate=   2.2kbits/s speed=0.02x elapsed=0:01:43.94    \nframe=  106 fps=1.0 q=28.0 size=       1KiB time=00:00:02.10 bitrate=   2.1kbits/s speed=0.0201x elapsed=0:01:44.47    \nframe=  107 fps=1.0 q=26.0 size=       1KiB time=00:00:02.12 bitrate=   2.1kbits/s speed=0.0202x elapsed=0:01:44.97    \nframe=  107 fps=1.0 q=26.0 size=       1KiB time=00:00:02.12 bitrate=   2.1kbits/s speed=0.0201x elapsed=0:01:45.49    \nframe=  109 fps=1.0 q=22.0 size=       1KiB time=00:00:02.16 bitrate=   2.1kbits/s speed=0.0204x elapsed=0:01:46.01    \nframe=  110 fps=1.0 q=28.0 size=       1KiB time=00:00:02.18 bitrate=   2.1kbits/s speed=0.0205x elapsed=0:01:46.52    \nframe=  112 fps=1.0 q=24.0 size=       1KiB time=00:00:02.22 bitrate=   2.0kbits/s speed=0.0207x elapsed=0:01:47.04    \nframe=  112 fps=1.0 q=24.0 size=       1KiB time=00:00:02.22 bitrate=   2.0kbits/s speed=0.0206x elapsed=0:01:47.55    \nframe=  114 fps=1.1 q=29.0 size=       1KiB time=00:00:02.26 bitrate=   2.0kbits/s speed=0.0209x elapsed=0:01:48.07    \nframe=  116 fps=1.1 q=29.0 size=       1KiB time=00:00:02.30 bitrate=   2.0kbits/s speed=0.0212x elapsed=0:01:48.59    \nframe=  117 fps=1.1 q=26.0 size=       1KiB time=00:00:02.32 bitrate=   1.9kbits/s speed=0.0213x elapsed=0:01:49.10    \nframe=  118 fps=1.1 q=29.0 size=       1KiB time=00:00:02.34 bitrate=   1.9kbits/s speed=0.0213x elapsed=0:01:49.61    \nframe=  119 fps=1.1 q=28.0 size=       1KiB time=00:00:02.36 bitrate=   1.9kbits/s speed=0.0214x elapsed=0:01:50.13    \nframe=  119 fps=1.1 q=28.0 size=       1KiB time=00:00:02.36 bitrate=   1.9kbits/s speed=0.0213x elapsed=0:01:50.65    \nframe=  121 fps=1.1 q=22.0 size=       1KiB time=00:00:02.40 bitrate=   1.9kbits/s speed=0.0216x elapsed=0:01:51.16    \nframe=  123 fps=1.1 q=26.0 size=       1KiB time=00:00:02.44 bitrate=   1.8kbits/s speed=0.0218x elapsed=0:01:51.68    \nframe=  123 fps=1.1 q=26.0 size=       1KiB time=00:00:02.44 bitrate=   1.8kbits/s speed=0.0217x elapsed=0:01:52.20    \nframe=  124 fps=1.1 q=28.0 size=       1KiB time=00:00:02.46 bitrate=   1.8kbits/s speed=0.0218x elapsed=0:01:52.70    \nframe=  127 fps=1.1 q=26.0 size=       1KiB time=00:00:02.52 bitrate=   1.8kbits/s speed=0.0223x elapsed=0:01:53.23    \nframe=  129 fps=1.1 q=13.0 size=       1KiB time=00:00:02.56 bitrate=   1.8kbits/s speed=0.0225x elapsed=0:01:53.74    \nframe=  130 fps=1.1 q=29.0 size=       1KiB time=00:00:02.58 bitrate=   1.7kbits/s speed=0.0226x elapsed=0:01:54.26    \nframe=  132 fps=1.2 q=29.0 size=       1KiB time=00:00:02.62 bitrate=   1.7kbits/s speed=0.0228x elapsed=0:01:54.78    \nframe=  133 fps=1.2 q=26.0 size=       1KiB time=00:00:02.64 bitrate=   1.7kbits/s speed=0.0229x elapsed=0:01:55.29    \nframe=  134 fps=1.2 q=29.0 size=       1KiB time=00:00:02.66 bitrate=   1.7kbits/s speed=0.023x elapsed=0:01:55.80    \nframe=  135 fps=1.2 q=28.0 size=       1KiB time=00:00:02.68 bitrate=   1.7kbits/s speed=0.023x elapsed=0:01:56.32    \nframe=  137 fps=1.2 q=22.0 size=       1KiB time=00:00:02.72 bitrate=   1.7kbits/s speed=0.0233x elapsed=0:01:56.84    \nframe=  138 fps=1.2 q=29.0 size=       1KiB time=00:00:02.74 bitrate=   1.6kbits/s speed=0.0233x elapsed=0:01:57.35    \nframe=  139 fps=1.2 q=27.0 size=       1KiB time=00:00:02.76 bitrate=   1.6kbits/s speed=0.0234x elapsed=0:01:57.86    \nframe=  139 fps=1.2 q=27.0 size=       1KiB time=00:00:02.76 bitrate=   1.6kbits/s speed=0.0233x elapsed=0:01:58.38    \nframe=  140 fps=1.2 q=30.0 size=       1KiB time=00:00:02.78 bitrate=   1.6kbits/s speed=0.0234x elapsed=0:01:58.89    \nframe=  141 fps=1.2 q=23.0 size=       1KiB time=00:00:02.80 bitrate=   1.6kbits/s speed=0.0234x elapsed=0:01:59.42    \nframe=  144 fps=1.2 q=30.0 size=       1KiB time=00:00:02.86 bitrate=   1.6kbits/s speed=0.0238x elapsed=0:01:59.93    \nframe=  144 fps=1.2 q=30.0 size=       1KiB time=00:00:02.86 bitrate=   1.6kbits/s speed=0.0237x elapsed=0:02:00.45    \nframe=  145 fps=1.2 q=13.0 size=       1KiB time=00:00:02.88 bitrate=   1.6kbits/s speed=0.0238x elapsed=0:02:00.96    \nframe=  146 fps=1.2 q=29.0 size=       1KiB time=00:00:02.90 bitrate=   1.6kbits/s speed=0.0239x elapsed=0:02:01.47    \nframe=  147 fps=1.2 q=28.0 size=       1KiB time=00:00:02.92 bitrate=   1.5kbits/s speed=0.0239x elapsed=0:02:01.99    \nframe=  147 fps=1.2 q=28.0 size=       1KiB time=00:00:02.92 bitrate=   1.5kbits/s speed=0.0238x elapsed=0:02:02.51    \nframe=  148 fps=1.2 q=29.0 size=       1KiB time=00:00:02.94 bitrate=   1.5kbits/s speed=0.0239x elapsed=0:02:03.04    \nframe=  149 fps=1.2 q=26.0 size=       1KiB time=00:00:02.96 bitrate=   1.5kbits/s speed=0.024x elapsed=0:02:03.57    \nframe=  150 fps=1.2 q=30.0 size=       1KiB time=00:00:02.98 bitrate=   1.5kbits/s speed=0.024x elapsed=0:02:04.09    \nframe=  151 fps=1.2 q=24.0 size=       1KiB time=00:00:03.00 bitrate=   1.5kbits/s speed=0.0241x elapsed=0:02:04.62    \nframe=  151 fps=1.2 q=24.0 size=       1KiB time=00:00:03.00 bitrate=   1.5kbits/s speed=0.024x elapsed=0:02:05.15    \nframe=  153 fps=1.2 q=21.0 size=       1KiB time=00:00:03.04 bitrate=   1.5kbits/s speed=0.0242x elapsed=0:02:05.66    \nframe=  154 fps=1.2 q=30.0 size=       1KiB time=00:00:03.06 bitrate=   1.5kbits/s speed=0.0242x elapsed=0:02:06.18    \nframe=  155 fps=1.2 q=27.0 size=       1KiB time=00:00:03.08 bitrate=   1.5kbits/s speed=0.0243x elapsed=0:02:06.70    \nframe=  155 fps=1.2 q=27.0 size=       1KiB time=00:00:03.08 bitrate=   1.5kbits/s speed=0.0242x elapsed=0:02:07.23    \nframe=  156 fps=1.2 q=30.0 size=       1KiB time=00:00:03.10 bitrate=   1.5kbits/s speed=0.0243x elapsed=0:02:07.74    \nframe=  157 fps=1.2 q=23.0 size=       1KiB time=00:00:03.12 bitrate=   1.4kbits/s speed=0.0243x elapsed=0:02:08.26    \nframe=  160 fps=1.2 q=30.0 size=    5120KiB time=00:00:03.18 bitrate=13189.6kbits/s speed=0.0247x elapsed=0:02:08.77    \nframe=  160 fps=1.2 q=30.0 size=    5120KiB time=00:00:03.18 bitrate=13189.6kbits/s speed=0.0246x elapsed=0:02:09.29    \nframe=  161 fps=1.2 q=12.0 size=    5120KiB time=00:00:03.20 bitrate=13107.2kbits/s speed=0.0247x elapsed=0:02:09.80    \nframe=  162 fps=1.2 q=30.0 size=    5120KiB time=00:00:03.22 bitrate=13025.8kbits/s speed=0.0247x elapsed=0:02:10.32    \nframe=  163 fps=1.2 q=28.0 size=    5120KiB time=00:00:03.24 bitrate=12945.4kbits/s speed=0.0248x elapsed=0:02:10.84    \nframe=  163 fps=1.2 q=28.0 size=    5120KiB time=00:00:03.24 bitrate=12945.4kbits/s speed=0.0247x elapsed=0:02:11.37    \nframe=  164 fps=1.2 q=30.0 size=    5120KiB time=00:00:03.26 bitrate=12866.0kbits/s speed=0.0247x elapsed=0:02:11.89    \nframe=  165 fps=1.2 q=26.0 size=    5120KiB time=00:00:03.28 bitrate=12787.5kbits/s speed=0.0248x elapsed=0:02:12.41    \nframe=  166 fps=1.2 q=30.0 size=    5120KiB time=00:00:03.30 bitrate=12710.0kbits/s speed=0.0248x elapsed=0:02:12.94    \nframe=  166 fps=1.2 q=30.0 size=    5120KiB time=00:00:03.30 bitrate=12710.0kbits/s speed=0.0247x elapsed=0:02:13.46    \nframe=  167 fps=1.2 q=24.0 size=    5120KiB time=00:00:03.32 bitrate=12633.4kbits/s speed=0.0248x elapsed=0:02:13.98    \nframe=  167 fps=1.2 q=24.0 size=    5120KiB time=00:00:03.32 bitrate=12633.4kbits/s speed=0.0247x elapsed=0:02:14.50    \nframe=  169 fps=1.3 q=21.0 size=    5120KiB time=00:00:03.36 bitrate=12483.0kbits/s speed=0.0249x elapsed=0:02:15.02    \nframe=  170 fps=1.3 q=30.0 size=    5120KiB time=00:00:03.38 bitrate=12409.2kbits/s speed=0.0249x elapsed=0:02:15.55    \nframe=  171 fps=1.3 q=26.0 size=    5120KiB time=00:00:03.40 bitrate=12336.2kbits/s speed=0.025x elapsed=0:02:16.08    \nframe=  171 fps=1.3 q=26.0 size=    5120KiB time=00:00:03.40 bitrate=12336.2kbits/s speed=0.0249x elapsed=0:02:16.60    \nframe=  173 fps=1.3 q=22.0 size=    5120KiB time=00:00:03.44 bitrate=12192.7kbits/s speed=0.0251x elapsed=0:02:17.11    \nframe=  175 fps=1.3 q=26.0 size=    5120KiB time=00:00:03.48 bitrate=12052.6kbits/s speed=0.0253x elapsed=0:02:17.66    \nframe=  177 fps=1.3 q=12.0 size=    5120KiB time=00:00:03.52 bitrate=11915.6kbits/s speed=0.0255x elapsed=0:02:18.18    \nframe=  178 fps=1.3 q=30.0 size=    5120KiB time=00:00:03.54 bitrate=11848.3kbits/s speed=0.0255x elapsed=0:02:18.71    \nframe=  179 fps=1.3 q=28.0 size=    5120KiB time=00:00:03.56 bitrate=11781.8kbits/s speed=0.0256x elapsed=0:02:19.22    \nframe=  179 fps=1.3 q=28.0 size=    5120KiB time=00:00:03.56 bitrate=11781.8kbits/s speed=0.0255x elapsed=0:02:19.74    \nframe=  180 fps=1.3 q=30.0 size=    5120KiB time=00:00:03.58 bitrate=11715.9kbits/s speed=0.0255x elapsed=0:02:20.27    \nframe=  181 fps=1.3 q=26.0 size=    5120KiB time=00:00:03.60 bitrate=11650.8kbits/s speed=0.0256x elapsed=0:02:20.78    \nframe=  182 fps=1.3 q=30.0 size=    5120KiB time=00:00:03.62 bitrate=11586.5kbits/s speed=0.0256x elapsed=0:02:21.30    \nframe=  182 fps=1.3 q=30.0 size=    5120KiB time=00:00:03.62 bitrate=11586.5kbits/s speed=0.0255x elapsed=0:02:21.84    \nframe=  183 fps=1.3 q=28.0 size=    5120KiB time=00:00:03.64 bitrate=11522.8kbits/s speed=0.0256x elapsed=0:02:22.36    \nframe=  183 fps=1.3 q=28.0 size=    5120KiB time=00:00:03.64 bitrate=11522.8kbits/s speed=0.0255x elapsed=0:02:22.90    \nframe=  185 fps=1.3 q=21.0 size=    5120KiB time=00:00:03.68 bitrate=11397.6kbits/s speed=0.0257x elapsed=0:02:23.43    \nframe=  185 fps=1.3 q=21.0 size=    5120KiB time=00:00:03.68 bitrate=11397.6kbits/s speed=0.0256x elapsed=0:02:23.96    \nframe=  186 fps=1.3 q=30.0 size=    5120KiB time=00:00:03.70 bitrate=11336.0kbits/s speed=0.0256x elapsed=0:02:24.49    \nframe=  187 fps=1.3 q=27.0 size=    5120KiB time=00:00:03.72 bitrate=11275.0kbits/s speed=0.0257x elapsed=0:02:25.02    \nframe=  187 fps=1.3 q=27.0 size=    5120KiB time=00:00:03.72 bitrate=11275.0kbits/s speed=0.0256x elapsed=0:02:25.56    \nframe=  188 fps=1.3 q=30.0 size=    5120KiB time=00:00:03.74 bitrate=11214.7kbits/s speed=0.0256x elapsed=0:02:26.09    \nframe=  191 fps=1.3 q=27.0 size=    5120KiB time=00:00:03.80 bitrate=11037.6kbits/s speed=0.0259x elapsed=0:02:26.62    \nframe=  192 fps=1.3 q=30.0 size=    5120KiB time=00:00:03.82 bitrate=10979.9kbits/s speed=0.026x elapsed=0:02:27.16    \nframe=  194 fps=1.3 q=30.0 size=    5120KiB time=00:00:03.86 bitrate=10866.1kbits/s speed=0.0261x elapsed=0:02:27.67    \nframe=  195 fps=1.3 q=29.0 size=    5120KiB time=00:00:03.88 bitrate=10810.1kbits/s speed=0.0262x elapsed=0:02:28.19    \nframe=  197 fps=1.3 q=27.0 size=    5120KiB time=00:00:03.92 bitrate=10699.8kbits/s speed=0.0263x elapsed=0:02:28.79    \nframe=  198 fps=1.3 q=30.0 size=    5120KiB time=00:00:03.94 bitrate=10645.4kbits/s speed=0.0264x elapsed=0:02:29.30    \nframe=  199 fps=1.3 q=29.0 size=    5120KiB time=00:00:03.96 bitrate=10591.7kbits/s speed=0.0264x elapsed=0:02:29.84    \nframe=  199 fps=1.3 q=29.0 size=    5120KiB time=00:00:03.96 bitrate=10591.7kbits/s speed=0.0263x elapsed=0:02:30.42    \nframe=  201 fps=1.3 q=23.0 size=    5120KiB time=00:00:04.00 bitrate=10485.8kbits/s speed=0.0265x elapsed=0:02:31.02    \nframe=  202 fps=1.3 q=28.0 size=    5120KiB time=00:00:04.02 bitrate=10433.6kbits/s speed=0.0265x elapsed=0:02:31.61    \nframe=  203 fps=1.3 q=26.0 size=    5120KiB time=00:00:04.04 bitrate=10381.9kbits/s speed=0.0265x elapsed=0:02:32.16    \nframe=  203 fps=1.3 q=26.0 size=    5120KiB time=00:00:04.04 bitrate=10381.9kbits/s speed=0.0265x elapsed=0:02:32.68    \nframe=  205 fps=1.3 q=22.0 size=    5120KiB time=00:00:04.08 bitrate=10280.2kbits/s speed=0.0266x elapsed=0:02:33.22    \nframe=  206 fps=1.3 q=27.0 size=    5120KiB time=00:00:04.10 bitrate=10230.0kbits/s speed=0.0267x elapsed=0:02:33.74    \nframe=  208 fps=1.3 q=27.0 size=    5120KiB time=00:00:04.14 bitrate=10131.2kbits/s speed=0.0268x elapsed=0:02:34.26    \nframe=  210 fps=1.4 q=29.0 size=    5120KiB time=00:00:04.18 bitrate=10034.2kbits/s speed=0.027x elapsed=0:02:34.77    \nframe=  211 fps=1.4 q=25.0 size=    5120KiB time=00:00:04.20 bitrate=9986.4kbits/s speed=0.027x elapsed=0:02:35.31    \nframe=  212 fps=1.4 q=29.0 size=    5120KiB time=00:00:04.22 bitrate=9939.1kbits/s speed=0.0271x elapsed=0:02:35.86    \nframe=  213 fps=1.4 q=21.0 size=    5120KiB time=00:00:04.24 bitrate=9892.2kbits/s speed=0.0271x elapsed=0:02:36.40    \nframe=  215 fps=1.4 q=25.0 size=    5120KiB time=00:00:04.28 bitrate=9799.8kbits/s speed=0.0273x elapsed=0:02:36.93    \nframe=  216 fps=1.4 q=29.0 size=    5120KiB time=00:00:04.30 bitrate=9754.2kbits/s speed=0.0273x elapsed=0:02:37.52    \nframe=  218 fps=1.4 q=29.0 size=    5120KiB time=00:00:04.32 bitrate=9709.0kbits/s speed=0.0273x elapsed=0:02:38.23    \nframe=  221 fps=1.4 q=21.0 size=    5120KiB time=00:00:04.38 bitrate=9576.0kbits/s speed=0.0276x elapsed=0:02:38.94    \nframe=  224 fps=1.4 q=29.0 size=    5120KiB time=00:00:04.44 bitrate=9446.6kbits/s speed=0.0278x elapsed=0:02:39.74    \nframe=  226 fps=1.4 q=29.0 size=    5120KiB time=00:00:04.48 bitrate=9362.3kbits/s speed=0.0279x elapsed=0:02:40.47    \nframe=  227 fps=1.4 q=25.0 size=    5120KiB time=00:00:04.52 bitrate=9279.4kbits/s speed=0.0281x elapsed=0:02:41.10    \nframe=  228 fps=1.4 q=29.0 size=    5120KiB time=00:00:04.54 bitrate=9238.6kbits/s speed=0.0281x elapsed=0:02:41.64    \nframe=  230 fps=1.4 q=29.0 size=    5120KiB time=00:00:04.58 bitrate=9157.9kbits/s speed=0.0282x elapsed=0:02:42.18    \nframe=  230 fps=1.4 q=29.0 size=    5120KiB time=00:00:04.58 bitrate=9157.9kbits/s speed=0.0281x elapsed=0:02:42.71    \nframe=  231 fps=1.4 q=25.0 size=    5120KiB time=00:00:04.60 bitrate=9118.1kbits/s speed=0.0282x elapsed=0:02:43.24    \nframe=  231 fps=1.4 q=25.0 size=    5120KiB time=00:00:04.60 bitrate=9118.1kbits/s speed=0.0281x elapsed=0:02:43.79    \nframe=  233 fps=1.4 q=20.0 size=    5120KiB time=00:00:04.64 bitrate=9039.4kbits/s speed=0.0282x elapsed=0:02:44.32    \nframe=  235 fps=1.4 q=25.0 size=    5120KiB time=00:00:04.66 bitrate=9000.7kbits/s speed=0.0282x elapsed=0:02:44.98    \nframe=  238 fps=1.4 q=29.0 size=    5120KiB time=00:00:04.70 bitrate=8924.1kbits/s speed=0.0283x elapsed=0:02:45.88    \nframe=  240 fps=1.4 q=29.0 size=    5120KiB time=00:00:04.78 bitrate=8774.7kbits/s speed=0.0287x elapsed=0:02:46.72    \nframe=  242 fps=1.4 q=28.0 size=    5120KiB time=00:00:04.80 bitrate=8738.1kbits/s speed=0.0287x elapsed=0:02:47.31    \nframe=  243 fps=1.4 q=27.0 size=    5120KiB time=00:00:04.84 bitrate=8665.9kbits/s speed=0.0288x elapsed=0:02:48.14    \nframe=  245 fps=1.5 q=25.0 size=    5120KiB time=00:00:04.88 bitrate=8594.9kbits/s speed=0.0289x elapsed=0:02:48.82    \nframe=  247 fps=1.5 q=27.0 size=    5120KiB time=00:00:04.90 bitrate=8559.8kbits/s speed=0.0289x elapsed=0:02:49.56    \nframe=  249 fps=1.5 q=21.0 size=    5120KiB time=00:00:04.92 bitrate=8525.0kbits/s speed=0.0289x elapsed=0:02:50.17    \nframe=  250 fps=1.5 q=30.0 size=    5120KiB time=00:00:04.98 bitrate=8422.3kbits/s speed=0.0291x elapsed=0:02:50.87    \nframe=  251 fps=1.5 q=25.0 size=    5120KiB time=00:00:05.00 bitrate=8388.6kbits/s speed=0.0292x elapsed=0:02:51.48    \nframe=  252 fps=1.5 q=29.0 size=    5120KiB time=00:00:05.00 bitrate=8388.6kbits/s speed=0.0291x elapsed=0:02:52.06    \nframe=  255 fps=1.5 q=25.0 size=    5120KiB time=00:00:05.08 bitrate=8256.5kbits/s speed=0.0294x elapsed=0:02:52.67    \nframe=  256 fps=1.5 q=23.0 size=    5120KiB time=00:00:05.10 bitrate=8224.1kbits/s speed=0.0294x elapsed=0:02:53.19    \nframe=  258 fps=1.5 q=30.0 size=    5120KiB time=00:00:05.14 bitrate=8160.1kbits/s speed=0.0296x elapsed=0:02:53.71    \nframe=  259 fps=1.5 q=28.0 size=    5120KiB time=00:00:05.16 bitrate=8128.5kbits/s speed=0.0296x elapsed=0:02:54.26    \nframe=  260 fps=1.5 q=29.0 size=    5120KiB time=00:00:05.18 bitrate=8097.1kbits/s speed=0.0296x elapsed=0:02:54.89    \nframe=  261 fps=1.5 q=25.0 size=    5120KiB time=00:00:05.20 bitrate=8066.0kbits/s speed=0.0296x elapsed=0:02:55.46    \nframe=  262 fps=1.5 q=29.0 size=    5120KiB time=00:00:05.22 bitrate=8035.1kbits/s speed=0.0297x elapsed=0:02:55.97    \nframe=  263 fps=1.5 q=28.0 size=    5120KiB time=00:00:05.24 bitrate=8004.4kbits/s speed=0.0297x elapsed=0:02:56.53    \nframe=  265 fps=1.5 q=20.0 size=    5120KiB time=00:00:05.28 bitrate=7943.8kbits/s speed=0.0298x elapsed=0:02:57.10    \nframe=  266 fps=1.5 q=30.0 size=    5120KiB time=00:00:05.30 bitrate=7913.8kbits/s speed=0.0298x elapsed=0:02:57.68    \nframe=  267 fps=1.5 q=26.0 size=    5120KiB time=00:00:05.32 bitrate=7884.0kbits/s speed=0.0298x elapsed=0:02:58.27    \nframe=  268 fps=1.5 q=29.0 size=    5120KiB time=00:00:05.34 bitrate=7854.5kbits/s speed=0.0299x elapsed=0:02:58.79    \nframe=  270 fps=1.5 q=30.0 size=    5120KiB time=00:00:05.38 bitrate=7796.1kbits/s speed=0.03x elapsed=0:02:59.31    \nframe=  273 fps=1.5 q=11.0 size=    5120KiB time=00:00:05.44 bitrate=7710.1kbits/s speed=0.0302x elapsed=0:02:59.85    \nframe=  274 fps=1.5 q=29.0 size=    5120KiB time=00:00:05.46 bitrate=7681.9kbits/s speed=0.0303x elapsed=0:03:00.37    \nframe=  275 fps=1.5 q=28.0 size=    5120KiB time=00:00:05.48 bitrate=7653.8kbits/s speed=0.0303x elapsed=0:03:00.88    \nframe=  276 fps=1.5 q=29.0 size=    5120KiB time=00:00:05.48 bitrate=7653.8kbits/s speed=0.0302x elapsed=0:03:01.40    \nframe=  277 fps=1.5 q=26.0 size=    5120KiB time=00:00:05.52 bitrate=7598.4kbits/s speed=0.0303x elapsed=0:03:01.96    \nframe=  278 fps=1.5 q=27.0 size=    5120KiB time=00:00:05.54 bitrate=7570.9kbits/s speed=0.0304x elapsed=0:03:02.50    \nframe=  279 fps=1.5 q=24.0 size=    5120KiB time=00:00:05.56 bitrate=7543.7kbits/s speed=0.0304x elapsed=0:03:03.02    \nframe=  281 fps=1.5 q=21.0 size=    5120KiB time=00:00:05.60 bitrate=7489.8kbits/s speed=0.0305x elapsed=0:03:03.55    \nframe=  282 fps=1.5 q=30.0 size=    5120KiB time=00:00:05.62 bitrate=7463.2kbits/s speed=0.0305x elapsed=0:03:04.10    \nframe=  283 fps=1.5 q=26.0 size=    5120KiB time=00:00:05.64 bitrate=7436.7kbits/s speed=0.0305x elapsed=0:03:04.64    \nframe=  284 fps=1.5 q=30.0 size=    5120KiB time=00:00:05.66 bitrate=7410.4kbits/s speed=0.0306x elapsed=0:03:05.16    \nframe=  287 fps=1.5 q=26.0 size=    5120KiB time=00:00:05.72 bitrate=7332.7kbits/s speed=0.0308x elapsed=0:03:05.69    \nframe=  288 fps=1.5 q=28.0 size=    5120KiB time=00:00:05.74 bitrate=7307.1kbits/s speed=0.0308x elapsed=0:03:06.26    \nframe=  289 fps=1.5 q=12.0 size=    5120KiB time=00:00:05.76 bitrate=7281.8kbits/s speed=0.0308x elapsed=0:03:06.77    \nframe=  292 fps=1.6 q=29.0 size=    5120KiB time=00:00:05.82 bitrate=7206.7kbits/s speed=0.0311x elapsed=0:03:07.34    \nframe=  292 fps=1.6 q=29.0 size=    5120KiB time=00:00:05.82 bitrate=7206.7kbits/s speed=0.031x elapsed=0:03:07.90    \nframe=  293 fps=1.6 q=25.0 size=    5120KiB time=00:00:05.84 bitrate=7182.0kbits/s speed=0.031x elapsed=0:03:08.42    \nframe=  296 fps=1.6 q=26.0 size=    5120KiB time=00:00:05.90 bitrate=7109.0kbits/s speed=0.0312x elapsed=0:03:09.00    \nframe=  297 fps=1.6 q=21.0 size=    5120KiB time=00:00:05.92 bitrate=7085.0kbits/s speed=0.0312x elapsed=0:03:09.54    \nframe=  297 fps=1.6 q=21.0 size=    5120KiB time=00:00:05.92 bitrate=7085.0kbits/s speed=0.0311x elapsed=0:03:10.09    \nframe=  299 fps=1.6 q=25.0 size=    5120KiB time=00:00:05.96 bitrate=7037.4kbits/s speed=0.0313x elapsed=0:03:10.67    \nframe=  301 fps=1.6 q=21.0 size=    5120KiB time=00:00:06.00 bitrate=6990.5kbits/s speed=0.0314x elapsed=0:03:11.26    \nframe=  301 fps=1.6 q=21.0 size=    5120KiB time=00:00:06.00 bitrate=6990.5kbits/s speed=0.0313x elapsed=0:03:11.80    \nframe=  303 fps=1.6 q=25.0 size=    5120KiB time=00:00:06.04 bitrate=6944.2kbits/s speed=0.0314x elapsed=0:03:12.32    \nframe=  305 fps=1.6 q=11.0 size=    5120KiB time=00:00:06.08 bitrate=6898.5kbits/s speed=0.0315x elapsed=0:03:12.84    \nframe=  308 fps=1.6 q=28.0 size=    5120KiB time=00:00:06.14 bitrate=6831.1kbits/s speed=0.0318x elapsed=0:03:13.37    \nframe=  309 fps=1.6 q=25.0 size=    5120KiB time=00:00:06.16 bitrate=6808.9kbits/s speed=0.0318x elapsed=0:03:13.88    \nframe=  309 fps=1.6 q=25.0 size=    5120KiB time=00:00:06.16 bitrate=6808.9kbits/s speed=0.0317x elapsed=0:03:14.40    \nframe=  311 fps=1.6 q=21.0 size=    5120KiB time=00:00:06.20 bitrate=6765.0kbits/s speed=0.0318x elapsed=0:03:14.91    \nframe=  313 fps=1.6 q=21.0 size=    5120KiB time=00:00:06.24 bitrate=6721.6kbits/s speed=0.0319x elapsed=0:03:15.42    \nframe=  313 fps=1.6 q=21.0 size=    5120KiB time=00:00:06.24 bitrate=6721.6kbits/s speed=0.0318x elapsed=0:03:15.94    \nframe=  313 fps=1.6 q=21.0 size=    5120KiB time=00:00:06.24 bitrate=6721.6kbits/s speed=0.0318x elapsed=0:03:16.47    \nframe=  314 fps=1.6 q=27.0 size=    5120KiB time=00:00:06.26 bitrate=6700.2kbits/s speed=0.0318x elapsed=0:03:16.97    \nframe=  316 fps=1.6 q=26.0 size=    5120KiB time=00:00:06.30 bitrate=6657.6kbits/s speed=0.0319x elapsed=0:03:17.49    \nframe=  317 fps=1.6 q=24.0 size=    5120KiB time=00:00:06.32 bitrate=6636.6kbits/s speed=0.0319x elapsed=0:03:18.01    \nframe=  318 fps=1.6 q=27.0 size=    5120KiB time=00:00:06.34 bitrate=6615.6kbits/s speed=0.0319x elapsed=0:03:18.52    \nframe=  320 fps=1.6 q=27.0 size=    5120KiB time=00:00:06.38 bitrate=6574.1kbits/s speed=0.0321x elapsed=0:03:19.03    \nframe=  323 fps=1.6 q=28.0 size=    9472KiB time=00:00:06.44 bitrate=12048.9kbits/s speed=0.0323x elapsed=0:03:19.55    \nframe=  323 fps=1.6 q=28.0 size=    9472KiB time=00:00:06.44 bitrate=12048.9kbits/s speed=0.0322x elapsed=0:03:20.07    \nframe=  324 fps=1.6 q=27.0 size=    9472KiB time=00:00:06.46 bitrate=12011.6kbits/s speed=0.0322x elapsed=0:03:20.58    \nframe=  325 fps=1.6 q=28.0 size=    9472KiB time=00:00:06.48 bitrate=11974.5kbits/s speed=0.0322x elapsed=0:03:21.10    \nframe=  327 fps=1.6 q=27.0 size=    9472KiB time=00:00:06.52 bitrate=11901.0kbits/s speed=0.0323x elapsed=0:03:21.62    \nframe=  328 fps=1.6 q=25.0 size=    9472KiB time=00:00:06.54 bitrate=11864.6kbits/s speed=0.0324x elapsed=0:03:22.13    \nframe=  329 fps=1.6 q=28.0 size=    9472KiB time=00:00:06.56 bitrate=11828.4kbits/s speed=0.0324x elapsed=0:03:22.64    \nframe=  330 fps=1.6 q=21.0 size=    9472KiB time=00:00:06.58 bitrate=11792.5kbits/s speed=0.0324x elapsed=0:03:23.17    \nframe=  332 fps=1.6 q=25.0 size=    9472KiB time=00:00:06.62 bitrate=11721.2kbits/s speed=0.0325x elapsed=0:03:23.68    \nframe=  332 fps=1.6 q=25.0 size=    9472KiB time=00:00:06.62 bitrate=11721.2kbits/s speed=0.0324x elapsed=0:03:24.19    \nframe=  335 fps=1.6 q=26.0 size=    9472KiB time=00:00:06.68 bitrate=11616.0kbits/s speed=0.0326x elapsed=0:03:24.72    \nframe=  336 fps=1.6 q=24.0 size=    9472KiB time=00:00:06.70 bitrate=11581.3kbits/s speed=0.0326x elapsed=0:03:25.23    \nframe=  337 fps=1.6 q=27.0 size=    9472KiB time=00:00:06.72 bitrate=11546.8kbits/s speed=0.0327x elapsed=0:03:25.74    \nframe=  338 fps=1.6 q=12.0 size=    9472KiB time=00:00:06.74 bitrate=11512.6kbits/s speed=0.0327x elapsed=0:03:26.25    \nframe=  339 fps=1.6 q=27.0 size=    9472KiB time=00:00:06.76 bitrate=11478.5kbits/s speed=0.0327x elapsed=0:03:26.77    \nframe=  340 fps=1.6 q=26.0 size=    9472KiB time=00:00:06.78 bitrate=11444.6kbits/s speed=0.0327x elapsed=0:03:27.29    \nframe=  341 fps=1.6 q=27.0 size=    9472KiB time=00:00:06.80 bitrate=11411.0kbits/s speed=0.0327x elapsed=0:03:27.80    \nframe=  342 fps=1.6 q=24.0 size=    9472KiB time=00:00:06.82 bitrate=11377.5kbits/s speed=0.0327x elapsed=0:03:28.32    \nframe=  343 fps=1.6 q=27.0 size=    9472KiB time=00:00:06.84 bitrate=11344.2kbits/s speed=0.0328x elapsed=0:03:28.83    \nframe=  344 fps=1.6 q=26.0 size=    9472KiB time=00:00:06.86 bitrate=11311.2kbits/s speed=0.0328x elapsed=0:03:29.36    \nframe=  345 fps=1.6 q=27.0 size=    9472KiB time=00:00:06.88 bitrate=11278.3kbits/s speed=0.0328x elapsed=0:03:29.88    \nframe=  348 fps=1.7 q=26.0 size=    9472KiB time=00:00:06.94 bitrate=11180.8kbits/s speed=0.033x elapsed=0:03:30.40    \nframe=  350 fps=1.7 q=24.0 size=    9472KiB time=00:00:06.98 bitrate=11116.7kbits/s speed=0.0331x elapsed=0:03:30.92    \nframe=  351 fps=1.7 q=26.0 size=    9472KiB time=00:00:07.00 bitrate=11084.9kbits/s speed=0.0331x elapsed=0:03:31.44    \nframe=  352 fps=1.7 q=24.0 size=    9472KiB time=00:00:07.02 bitrate=11053.4kbits/s speed=0.0331x elapsed=0:03:31.95    \nframe=  352 fps=1.7 q=24.0 size=    9472KiB time=00:00:07.02 bitrate=11053.4kbits/s speed=0.033x elapsed=0:03:32.48    \nframe=  353 fps=1.7 q=26.0 size=    9472KiB time=00:00:07.04 bitrate=11022.0kbits/s speed=0.0331x elapsed=0:03:32.99    \nframe=  353 fps=1.7 q=26.0 size=    9472KiB time=00:00:07.04 bitrate=11022.0kbits/s speed=0.033x elapsed=0:03:33.50    \nframe=  354 fps=1.7 q=11.0 size=    9472KiB time=00:00:07.06 bitrate=10990.7kbits/s speed=0.033x elapsed=0:03:34.02    \nframe=  355 fps=1.7 q=27.0 size=    9472KiB time=00:00:07.08 bitrate=10959.7kbits/s speed=0.033x elapsed=0:03:34.54    \nframe=  355 fps=1.7 q=27.0 size=    9472KiB time=00:00:07.08 bitrate=10959.7kbits/s speed=0.0329x elapsed=0:03:35.05    \nframe=  356 fps=1.7 q=26.0 size=    9472KiB time=00:00:07.10 bitrate=10928.8kbits/s speed=0.0329x elapsed=0:03:35.56    \nframe=  356 fps=1.6 q=26.0 size=    9472KiB time=00:00:07.10 bitrate=10928.8kbits/s speed=0.0329x elapsed=0:03:36.09    \nframe=  358 fps=1.7 q=24.0 size=    9472KiB time=00:00:07.14 bitrate=10867.6kbits/s speed=0.033x elapsed=0:03:36.60    \nframe=  359 fps=1.7 q=25.0 size=    9472KiB time=00:00:07.16 bitrate=10837.2kbits/s speed=0.033x elapsed=0:03:37.12    \nframe=  359 fps=1.6 q=25.0 size=    9472KiB time=00:00:07.16 bitrate=10837.2kbits/s speed=0.0329x elapsed=0:03:37.64    \nframe=  360 fps=1.7 q=22.0 size=    9472KiB time=00:00:07.18 bitrate=10807.1kbits/s speed=0.0329x elapsed=0:03:38.14    \nframe=  360 fps=1.6 q=22.0 size=    9472KiB time=00:00:07.18 bitrate=10807.1kbits/s speed=0.0328x elapsed=0:03:38.67    \nframe=  361 fps=1.6 q=25.0 size=    9472KiB time=00:00:07.20 bitrate=10777.0kbits/s speed=0.0328x elapsed=0:03:39.18    \nframe=  362 fps=1.6 q=19.0 size=    9472KiB time=00:00:07.22 bitrate=10747.2kbits/s speed=0.0329x elapsed=0:03:39.70    \nframe=  365 fps=1.7 q=24.0 size=    9472KiB time=00:00:07.28 bitrate=10658.6kbits/s speed=0.0331x elapsed=0:03:40.22    \nframe=  365 fps=1.7 q=24.0 size=    9472KiB time=00:00:07.28 bitrate=10658.6kbits/s speed=0.033x elapsed=0:03:40.73    \nframe=  366 fps=1.7 q=20.0 size=    9472KiB time=00:00:07.30 bitrate=10629.4kbits/s speed=0.033x elapsed=0:03:41.24    \nframe=  367 fps=1.7 q=27.0 size=    9472KiB time=00:00:07.32 bitrate=10600.4kbits/s speed=0.033x elapsed=0:03:41.76    \nframe=  368 fps=1.7 q=24.0 size=    9472KiB time=00:00:07.34 bitrate=10571.5kbits/s speed=0.033x elapsed=0:03:42.28    \nframe=  368 fps=1.7 q=24.0 size=    9472KiB time=00:00:07.34 bitrate=10571.5kbits/s speed=0.0329x elapsed=0:03:42.79    \nframe=  369 fps=1.7 q=27.0 size=    9472KiB time=00:00:07.36 bitrate=10542.7kbits/s speed=0.033x elapsed=0:03:43.31    \nframe=  370 fps=1.7 q=10.0 size=    9472KiB time=00:00:07.38 bitrate=10514.2kbits/s speed=0.033x elapsed=0:03:43.82    \nframe=  371 fps=1.7 q=28.0 size=    9472KiB time=00:00:07.40 bitrate=10485.8kbits/s speed=0.033x elapsed=0:03:44.33    \nframe=  371 fps=1.6 q=28.0 size=    9472KiB time=00:00:07.40 bitrate=10485.8kbits/s speed=0.0329x elapsed=0:03:44.85    \nframe=  372 fps=1.7 q=27.0 size=    9472KiB time=00:00:07.42 bitrate=10457.5kbits/s speed=0.0329x elapsed=0:03:45.37    \nframe=  373 fps=1.7 q=28.0 size=    9472KiB time=00:00:07.44 bitrate=10429.4kbits/s speed=0.0329x elapsed=0:03:45.88    \nframe=  374 fps=1.7 q=24.0 size=    9472KiB time=00:00:07.46 bitrate=10401.4kbits/s speed=0.033x elapsed=0:03:46.40    \nframe=  375 fps=1.7 q=28.0 size=    9472KiB time=00:00:07.48 bitrate=10373.6kbits/s speed=0.033x elapsed=0:03:46.91    \nframe=  376 fps=1.7 q=27.0 size=    9472KiB time=00:00:07.50 bitrate=10345.9kbits/s speed=0.033x elapsed=0:03:47.43    \nframe=  376 fps=1.6 q=27.0 size=    9472KiB time=00:00:07.50 bitrate=10345.9kbits/s speed=0.0329x elapsed=0:03:47.94    \nframe=  377 fps=1.7 q=28.0 size=    9472KiB time=00:00:07.52 bitrate=10318.4kbits/s speed=0.0329x elapsed=0:03:48.46    \nframe=  381 fps=1.7 q=25.0 size=    9472KiB time=00:00:07.60 bitrate=10209.8kbits/s speed=0.0332x elapsed=0:03:48.97    \nframe=  382 fps=1.7 q=21.0 size=    9472KiB time=00:00:07.62 bitrate=10183.0kbits/s speed=0.0332x elapsed=0:03:49.49    \nframe=  404 fps=1.8 q=28.0 size=    9472KiB time=00:00:08.06 bitrate=9627.1kbits/s speed=0.035x elapsed=0:03:50.01    \nframe=  404 fps=1.8 q=28.0 size=    9472KiB time=00:00:08.06 bitrate=9627.1kbits/s speed=0.035x elapsed=0:03:50.52    \nframe=  406 fps=1.8 q=26.0 size=    9472KiB time=00:00:08.10 bitrate=9579.6kbits/s speed=0.0351x elapsed=0:03:51.04    \nframe=  408 fps=1.8 q=28.0 size=    9472KiB time=00:00:08.14 bitrate=9532.5kbits/s speed=0.0352x elapsed=0:03:51.56    \nframe=  410 fps=1.8 q=21.0 size=    9472KiB time=00:00:08.18 bitrate=9485.9kbits/s speed=0.0352x elapsed=0:03:52.07    \nframe=  410 fps=1.8 q=21.0 size=    9472KiB time=00:00:08.18 bitrate=9485.9kbits/s speed=0.0352x elapsed=0:03:52.59    \nframe=  410 fps=1.8 q=21.0 size=    9472KiB time=00:00:08.18 bitrate=9485.9kbits/s speed=0.0351x elapsed=0:03:53.10    \nframe=  412 fps=1.8 q=26.0 size=    9472KiB time=00:00:08.22 bitrate=9439.7kbits/s speed=0.0352x elapsed=0:03:53.62    \nframe=  414 fps=1.8 q=22.0 size=    9472KiB time=00:00:08.26 bitrate=9394.0kbits/s speed=0.0353x elapsed=0:03:54.14    \nframe=  414 fps=1.8 q=22.0 size=    9472KiB time=00:00:08.26 bitrate=9394.0kbits/s speed=0.0352x elapsed=0:03:54.65    \nframe=  414 fps=1.8 q=22.0 size=    9472KiB time=00:00:08.26 bitrate=9394.0kbits/s speed=0.0351x elapsed=0:03:55.17    \nframe=  416 fps=1.8 q=26.0 size=    9472KiB time=00:00:08.30 bitrate=9348.7kbits/s speed=0.0352x elapsed=0:03:55.68    \nframe=  418 fps=1.8 q=12.0 size=    9472KiB time=00:00:08.34 bitrate=9303.9kbits/s speed=0.0353x elapsed=0:03:56.20    \nframe=  422 fps=1.8 q=26.0 size=    9472KiB time=00:00:08.42 bitrate=9215.5kbits/s speed=0.0356x elapsed=0:03:56.73    \nframe=  422 fps=1.8 q=26.0 size=    9472KiB time=00:00:08.42 bitrate=9215.5kbits/s speed=0.0355x elapsed=0:03:57.24    \nframe=  424 fps=1.8 q=24.0 size=    9472KiB time=00:00:08.46 bitrate=9171.9kbits/s speed=0.0356x elapsed=0:03:57.76    \nframe=  426 fps=1.8 q=22.0 size=    9472KiB time=00:00:08.50 bitrate=9128.8kbits/s speed=0.0357x elapsed=0:03:58.28    \nframe=  426 fps=1.8 q=22.0 size=    9472KiB time=00:00:08.50 bitrate=9128.8kbits/s speed=0.0356x elapsed=0:03:58.80    \nframe=  426 fps=1.8 q=22.0 size=    9472KiB time=00:00:08.50 bitrate=9128.8kbits/s speed=0.0355x elapsed=0:03:59.32    \nframe=  428 fps=1.8 q=26.0 size=    9472KiB time=00:00:08.54 bitrate=9086.0kbits/s speed=0.0356x elapsed=0:03:59.84    \nframe=  430 fps=1.8 q=22.0 size=    9472KiB time=00:00:08.58 bitrate=9043.7kbits/s speed=0.0357x elapsed=0:04:00.35    \nframe=  430 fps=1.8 q=22.0 size=    9472KiB time=00:00:08.58 bitrate=9043.7kbits/s speed=0.0356x elapsed=0:04:00.87    \nframe=  432 fps=1.8 q=25.0 size=    9472KiB time=00:00:08.62 bitrate=9001.7kbits/s speed=0.0357x elapsed=0:04:01.39    \nframe=  434 fps=1.8 q=13.0 size=    9472KiB time=00:00:08.66 bitrate=8960.1kbits/s speed=0.0358x elapsed=0:04:01.90    \nframe=  436 fps=1.8 q=27.0 size=    9472KiB time=00:00:08.70 bitrate=8918.9kbits/s speed=0.0359x elapsed=0:04:02.41    \nframe=  438 fps=1.8 q=25.0 size=    9472KiB time=00:00:08.74 bitrate=8878.1kbits/s speed=0.036x elapsed=0:04:02.93    \nframe=  440 fps=1.8 q=27.0 size=    9472KiB time=00:00:08.78 bitrate=8837.7kbits/s speed=0.0361x elapsed=0:04:03.45    \nframe=  442 fps=1.8 q=21.0 size=    9472KiB time=00:00:08.82 bitrate=8797.6kbits/s speed=0.0362x elapsed=0:04:03.96    \nframe=  442 fps=1.8 q=21.0 size=    9472KiB time=00:00:08.82 bitrate=8797.6kbits/s speed=0.0361x elapsed=0:04:04.47    \nframe=  442 fps=1.8 q=21.0 size=    9472KiB time=00:00:08.82 bitrate=8797.6kbits/s speed=0.036x elapsed=0:04:04.99    \nframe=  446 fps=1.8 q=21.0 size=    9472KiB time=00:00:08.90 bitrate=8718.5kbits/s speed=0.0363x elapsed=0:04:05.51    \nframe=  446 fps=1.8 q=21.0 size=    9472KiB time=00:00:08.90 bitrate=8718.5kbits/s speed=0.0362x elapsed=0:04:06.02    \nframe=  446 fps=1.8 q=21.0 size=    9472KiB time=00:00:08.90 bitrate=8718.5kbits/s speed=0.0361x elapsed=0:04:06.54    \nframe=  450 fps=1.8 q=12.0 size=    9472KiB time=00:00:08.98 bitrate=8640.8kbits/s speed=0.0363x elapsed=0:04:07.05    \nframe=  450 fps=1.8 q=12.0 size=    9472KiB time=00:00:08.98 bitrate=8640.8kbits/s speed=0.0363x elapsed=0:04:07.58    \nframe=  452 fps=1.8 q=27.0 size=    9472KiB time=00:00:09.02 bitrate=8602.5kbits/s speed=0.0364x elapsed=0:04:08.08    \nframe=  454 fps=1.8 q=25.0 size=    9472KiB time=00:00:09.06 bitrate=8564.5kbits/s speed=0.0364x elapsed=0:04:08.60    \nframe=  456 fps=1.8 q=27.0 size=    9472KiB time=00:00:09.10 bitrate=8526.9kbits/s speed=0.0365x elapsed=0:04:09.11    \nframe=  458 fps=1.8 q=20.0 size=    9472KiB time=00:00:09.14 bitrate=8489.6kbits/s speed=0.0366x elapsed=0:04:09.63    \nframe=  458 fps=1.8 q=20.0 size=    9472KiB time=00:00:09.14 bitrate=8489.6kbits/s speed=0.0365x elapsed=0:04:10.15    \nframe=  458 fps=1.8 q=20.0 size=    9472KiB time=00:00:09.14 bitrate=8489.6kbits/s speed=0.0365x elapsed=0:04:10.67    \nframe=  458 fps=1.8 q=20.0 size=    9472KiB time=00:00:09.14 bitrate=8489.6kbits/s speed=0.0364x elapsed=0:04:11.19    \nframe=  460 fps=1.8 q=25.0 size=    9472KiB time=00:00:09.18 bitrate=8452.6kbits/s speed=0.0365x elapsed=0:04:11.70    \nframe=  462 fps=1.8 q=21.0 size=    9472KiB time=00:00:09.22 bitrate=8415.9kbits/s speed=0.0366x elapsed=0:04:12.21    \nframe=  462 fps=1.8 q=21.0 size=    9472KiB time=00:00:09.22 bitrate=8415.9kbits/s speed=0.0365x elapsed=0:04:12.72    \nframe=  464 fps=1.8 q=25.0 size=    9472KiB time=00:00:09.26 bitrate=8379.5kbits/s speed=0.0366x elapsed=0:04:13.24    \nframe=  466 fps=1.8 q=11.0 size=    9472KiB time=00:00:09.30 bitrate=8343.5kbits/s speed=0.0366x elapsed=0:04:13.75    \nframe=  466 fps=1.8 q=11.0 size=    9472KiB time=00:00:09.30 bitrate=8343.5kbits/s speed=0.0366x elapsed=0:04:14.28    \nframe=  468 fps=1.8 q=27.0 size=    9472KiB time=00:00:09.34 bitrate=8307.8kbits/s speed=0.0367x elapsed=0:04:14.79    \nframe=  470 fps=1.8 q=25.0 size=    9472KiB time=00:00:09.38 bitrate=8272.3kbits/s speed=0.0367x elapsed=0:04:15.30    \nframe=  470 fps=1.8 q=25.0 size=    9472KiB time=00:00:09.38 bitrate=8272.3kbits/s speed=0.0367x elapsed=0:04:15.82    \nframe=  470 fps=1.8 q=25.0 size=    9472KiB time=00:00:09.38 bitrate=8272.3kbits/s speed=0.0366x elapsed=0:04:16.33    \nframe=  470 fps=1.8 q=25.0 size=    9472KiB time=00:00:09.38 bitrate=8272.3kbits/s speed=0.0365x elapsed=0:04:16.85    \nframe=  472 fps=1.8 q=27.0 size=    9472KiB time=00:00:09.42 bitrate=8237.2kbits/s speed=0.0366x elapsed=0:04:17.36    \nframe=  474 fps=1.8 q=20.0 size=    9472KiB time=00:00:09.46 bitrate=8202.4kbits/s speed=0.0367x elapsed=0:04:17.88    \nframe=  474 fps=1.8 q=20.0 size=    9472KiB time=00:00:09.46 bitrate=8202.4kbits/s speed=0.0366x elapsed=0:04:18.40    \nframe=  474 fps=1.8 q=20.0 size=    9472KiB time=00:00:09.46 bitrate=8202.4kbits/s speed=0.0365x elapsed=0:04:18.91    \nframe=  476 fps=1.8 q=28.0 size=    9472KiB time=00:00:09.50 bitrate=8167.9kbits/s speed=0.0366x elapsed=0:04:19.42    \nframe=  478 fps=1.8 q=27.0 size=    9472KiB time=00:00:09.54 bitrate=8133.6kbits/s speed=0.0367x elapsed=0:04:19.94    \nframe=  478 fps=1.8 q=27.0 size=    9472KiB time=00:00:09.54 bitrate=8133.6kbits/s speed=0.0366x elapsed=0:04:20.46    \nframe=  478 fps=1.8 q=27.0 size=    9472KiB time=00:00:09.54 bitrate=8133.6kbits/s speed=0.0366x elapsed=0:04:20.98    \nframe=  480 fps=1.8 q=29.0 size=    9472KiB time=00:00:09.58 bitrate=8099.6kbits/s speed=0.0366x elapsed=0:04:21.50    \nframe=  482 fps=1.8 q=11.0 size=    9472KiB time=00:00:09.62 bitrate=8066.0kbits/s speed=0.0367x elapsed=0:04:22.01    \nframe=  482 fps=1.8 q=11.0 size=    9472KiB time=00:00:09.62 bitrate=8066.0kbits/s speed=0.0366x elapsed=0:04:22.53    \nframe=  482 fps=1.8 q=11.0 size=    9472KiB time=00:00:09.62 bitrate=8066.0kbits/s speed=0.0366x elapsed=0:04:23.04    \nframe=  484 fps=1.8 q=29.0 size=    9472KiB time=00:00:09.66 bitrate=8032.6kbits/s speed=0.0367x elapsed=0:04:23.55    \nframe=  486 fps=1.8 q=29.0 size=    9472KiB time=00:00:09.70 bitrate=7999.4kbits/s speed=0.0367x elapsed=0:04:24.06    \nframe=  486 fps=1.8 q=29.0 size=    9472KiB time=00:00:09.70 bitrate=7999.4kbits/s speed=0.0367x elapsed=0:04:24.59    \nframe=  488 fps=1.8 q=29.0 size=    9472KiB time=00:00:09.74 bitrate=7966.6kbits/s speed=0.0367x elapsed=0:04:25.10    \nframe=  490 fps=1.8 q=27.0 size=    9472KiB time=00:00:09.78 bitrate=7934.0kbits/s speed=0.0368x elapsed=0:04:25.62    \nframe=  490 fps=1.8 q=27.0 size=    9472KiB time=00:00:09.78 bitrate=7934.0kbits/s speed=0.0367x elapsed=0:04:26.13    \nframe=  490 fps=1.8 q=27.0 size=    9472KiB time=00:00:09.78 bitrate=7934.0kbits/s speed=0.0367x elapsed=0:04:26.65    \nframe=  490 fps=1.8 q=27.0 size=    9472KiB time=00:00:09.78 bitrate=7934.0kbits/s speed=0.0366x elapsed=0:04:27.16    \nframe=  492 fps=1.8 q=29.0 size=    9472KiB time=00:00:09.82 bitrate=7901.7kbits/s speed=0.0367x elapsed=0:04:27.68    \nframe=  494 fps=1.8 q=29.0 size=    9472KiB time=00:00:09.86 bitrate=7869.6kbits/s speed=0.0368x elapsed=0:04:28.20    \nframe=  494 fps=1.8 q=29.0 size=    9472KiB time=00:00:09.86 bitrate=7869.6kbits/s speed=0.0367x elapsed=0:04:28.71    \nframe=  494 fps=1.8 q=29.0 size=    9472KiB time=00:00:09.86 bitrate=7869.6kbits/s speed=0.0366x elapsed=0:04:29.22    \nframe=  496 fps=1.8 q=29.0 size=    9472KiB time=00:00:09.90 bitrate=7837.8kbits/s speed=0.0367x elapsed=0:04:29.75    \n[out#0/matroska @ 0000018a268a93c0] video:14584KiB audio:0KiB subtitle:0KiB other streams:0KiB global headers:0KiB muxing overhead: 0.020604%\nframe=  500 fps=1.9 q=25.0 Lsize=   14587KiB time=00:00:09.98 bitrate=11973.9kbits/s speed=0.0369x elapsed=0:04:30.16    \n",
  "seconds": 271.7466309070587,
  "probe_out": {}
}